<?xml version="1.0" encoding="UTF-8" standalone="no"?>
<!DOCTYPE svg PUBLIC "-//W3C//DTD SVG 1.1//EN"
 "http://www.w3.org/Graphics/SVG/1.1/DTD/svg11.dtd">
<!-- Generated by graphviz version 9.0.0 (0)
 -->
<!-- Pages: 1 -->
<svg width="1098pt" height="260pt"
 viewBox="0.00 0.00 1097.57 260.00" xmlns="http://www.w3.org/2000/svg" xmlns:xlink="http://www.w3.org/1999/xlink">
<g id="graph0" class="graph" transform="scale(1 1) rotate(0) translate(4 256)">
<polygon fill="white" stroke="none" points="-4,4 -4,-256 1093.57,-256 1093.57,4 -4,4"/>
<!-- [root] provider[&quot;registry.terraform.io/hashicorp/tls&quot;] -->
<g id="node1" class="node">
<title>[root] provider[&quot;registry.terraform.io/hashicorp/tls&quot;]</title>
<polygon fill="none" stroke="black" points="468.86,-36 218.81,-18 468.86,0 718.91,-18 468.86,-36"/>
<text text-anchor="middle" x="468.86" y="-12.57" font-family="Times,serif" font-size="14.00">provider[&quot;registry.terraform.io/hashicorp/tls&quot;]</text>
</g>
<!-- [root] tls_private_key.rsa_key (expand) -->
<g id="node2" class="node">
<title>[root] tls_private_key.rsa_key (expand)</title>
<polygon fill="none" stroke="black" points="540.99,-108 396.74,-108 396.74,-72 540.99,-72 540.99,-108"/>
<text text-anchor="middle" x="468.86" y="-84.58" font-family="Times,serif" font-size="14.00">tls_private_key.rsa_key</text>
</g>
<!-- [root] tls_private_key.rsa_key (expand)&#45;&gt;[root] provider[&quot;registry.terraform.io/hashicorp/tls&quot;] -->
<g id="edge7" class="edge">
<title>[root] tls_private_key.rsa_key (expand)&#45;&gt;[root] provider[&quot;registry.terraform.io/hashicorp/tls&quot;]</title>
<path fill="none" stroke="black" d="M468.86,-71.7C468.86,-64.41 468.86,-55.73 468.86,-47.54"/>
<polygon fill="black" stroke="black" points="472.36,-47.62 468.86,-37.62 465.36,-47.62 472.36,-47.62"/>
</g>
<!-- [root] output.private_key_ssh (expand) -->
<g id="node3" class="node">
<title>[root] output.private_key_ssh (expand)</title>
<ellipse fill="none" stroke="black" cx="150.86" cy="-162" rx="150.86" ry="18"/>
<text text-anchor="middle" x="150.86" y="-156.57" font-family="Times,serif" font-size="14.00">[root] output.private_key_ssh (expand)</text>
</g>
<!-- [root] output.private_key_ssh (expand)&#45;&gt;[root] tls_private_key.rsa_key (expand) -->
<g id="edge1" class="edge">
<title>[root] output.private_key_ssh (expand)&#45;&gt;[root] tls_private_key.rsa_key (expand)</title>
<path fill="none" stroke="black" d="M220.65,-145.64C269.19,-134.95 334.14,-120.66 385.43,-109.37"/>
<polygon fill="black" stroke="black" points="385.99,-112.83 395,-107.26 384.48,-105.99 385.99,-112.83"/>
</g>
<!-- [root] output.public_key_ssh (expand) -->
<g id="node4" class="node">
<title>[root] output.public_key_ssh (expand)</title>
<ellipse fill="none" stroke="black" cx="468.86" cy="-162" rx="148.87" ry="18"/>
<text text-anchor="middle" x="468.86" y="-156.57" font-family="Times,serif" font-size="14.00">[root] output.public_key_ssh (expand)</text>
</g>
<!-- [root] output.public_key_ssh (expand)&#45;&gt;[root] tls_private_key.rsa_key (expand) -->
<g id="edge2" class="edge">
<title>[root] output.public_key_ssh (expand)&#45;&gt;[root] tls_private_key.rsa_key (expand)</title>
<path fill="none" stroke="black" d="M468.86,-143.7C468.86,-136.41 468.86,-127.73 468.86,-119.54"/>
<polygon fill="black" stroke="black" points="472.36,-119.62 468.86,-109.62 465.36,-119.62 472.36,-119.62"/>
</g>
<!-- [root] provider[&quot;registry.terraform.io/hashicorp/tls&quot;] (close) -->
<g id="node5" class="node">
<title>[root] provider[&quot;registry.terraform.io/hashicorp/tls&quot;] (close)</title>
<ellipse fill="none" stroke="black" cx="862.86" cy="-162" rx="226.71" ry="18"/>
<text text-anchor="middle" x="862.86" y="-156.57" font-family="Times,serif" font-size="14.00">[root] provider[&quot;registry.terraform.io/hashicorp/tls&quot;] (close)</text>
</g>
<!-- [root] provider[&quot;registry.terraform.io/hashicorp/tls&quot;] (close)&#45;&gt;[root] tls_private_key.rsa_key (expand) -->
<g id="edge3" class="edge">
<title>[root] provider[&quot;registry.terraform.io/hashicorp/tls&quot;] (close)&#45;&gt;[root] tls_private_key.rsa_key (expand)</title>
<path fill="none" stroke="black" d="M772.97,-145.03C706.62,-133.24 617,-117.32 552.25,-105.82"/>
<polygon fill="black" stroke="black" points="553.22,-102.43 542.76,-104.13 552,-109.32 553.22,-102.43"/>
</g>
<!-- [root] root -->
<g id="node6" class="node">
<title>[root] root</title>
<ellipse fill="none" stroke="black" cx="468.86" cy="-234" rx="48.07" ry="18"/>
<text text-anchor="middle" x="468.86" y="-228.57" font-family="Times,serif" font-size="14.00">[root] root</text>
</g>
<!-- [root] root&#45;&gt;[root] output.private_key_ssh (expand) -->
<g id="edge4" class="edge">
<title>[root] root&#45;&gt;[root] output.private_key_ssh (expand)</title>
<path fill="none" stroke="black" d="M428.27,-224.06C378.9,-213.2 294.42,-194.6 231.62,-180.78"/>
<polygon fill="black" stroke="black" points="232.56,-177.4 222.04,-178.67 231.05,-184.24 232.56,-177.4"/>
</g>
<!-- [root] root&#45;&gt;[root] output.public_key_ssh (expand) -->
<g id="edge5" class="edge">
<title>[root] root&#45;&gt;[root] output.public_key_ssh (expand)</title>
<path fill="none" stroke="black" d="M468.86,-215.7C468.86,-208.41 468.86,-199.73 468.86,-191.54"/>
<polygon fill="black" stroke="black" points="472.36,-191.62 468.86,-181.62 465.36,-191.62 472.36,-191.62"/>
</g>
<!-- [root] root&#45;&gt;[root] provider[&quot;registry.terraform.io/hashicorp/tls&quot;] (close) -->
<g id="edge6" class="edge">
<title>[root] root&#45;&gt;[root] provider[&quot;registry.terraform.io/hashicorp/tls&quot;] (close)</title>
<path fill="none" stroke="black" d="M511.78,-225.38C571.3,-214.8 680.73,-195.36 761.66,-180.98"/>
<polygon fill="black" stroke="black" points="762.16,-184.45 771.39,-179.25 760.93,-177.55 762.16,-184.45"/>
</g>
</g>
</svg>
